<svg width="375" height="364" viewBox="0 0 375 364" fill="none" xmlns="http://www.w3.org/2000/svg">
<path d="M310.275 184.185C310.275 110.661 250.891 51.0573 177.638 51.0573C104.384 51.0573 45 110.661 45 184.185C45 257.709 104.384 317.313 177.638 317.313C250.891 317.313 310.275 257.709 310.275 184.185Z" fill="#7B4AE2" fill-opacity="0.2"/>
<g filter="url(#filter0_d_111_92)">
<ellipse cx="312.578" cy="195.24" rx="18.4219" ry="18.5019" fill="#1D0604"/>
</g>
<g clip-path="url(#clip0_111_92)">
<path fill-rule="evenodd" clip-rule="evenodd" d="M320.35 185.989H304.806C304.011 185.989 303.367 186.636 303.367 187.435V203.046C303.367 203.844 304.011 204.491 304.806 204.491H320.35C321.145 204.491 321.789 203.844 321.789 203.046V187.435C321.789 186.636 321.145 185.989 320.35 185.989ZM314.198 202.474V200.478C314.559 200.782 314.951 201.01 315.373 201.161C315.796 201.313 316.223 201.389 316.654 201.389C316.907 201.389 317.127 201.366 317.316 201.32C317.504 201.275 317.662 201.211 317.788 201.13C317.915 201.049 318.009 200.953 318.071 200.843C318.133 200.733 318.164 200.613 318.164 200.485C318.164 200.31 318.115 200.154 318.015 200.017C317.916 199.879 317.78 199.753 317.608 199.636C317.436 199.52 317.232 199.407 316.996 199.299C316.759 199.191 316.505 199.081 316.231 198.969C315.535 198.678 315.016 198.322 314.674 197.902C314.332 197.482 314.161 196.975 314.161 196.38C314.161 195.914 314.254 195.514 314.441 195.179C314.627 194.844 314.881 194.569 315.202 194.353C315.524 194.136 315.895 193.977 316.318 193.875C316.741 193.774 317.188 193.723 317.661 193.723C318.125 193.723 318.536 193.751 318.895 193.807C319.253 193.863 319.584 193.949 319.886 194.066V195.931C319.737 195.827 319.574 195.735 319.398 195.656C319.222 195.577 319.041 195.512 318.854 195.46C318.668 195.408 318.482 195.369 318.298 195.344C318.114 195.32 317.939 195.307 317.773 195.307C317.545 195.307 317.338 195.329 317.151 195.372C316.965 195.416 316.807 195.477 316.679 195.557C316.55 195.636 316.451 195.73 316.38 195.84C316.31 195.951 316.275 196.074 316.275 196.212C316.275 196.361 316.314 196.495 316.393 196.614C316.471 196.732 316.583 196.845 316.728 196.951C316.873 197.057 317.05 197.161 317.257 197.263C317.464 197.365 317.698 197.469 317.959 197.578C318.316 197.727 318.636 197.886 318.92 198.055C319.203 198.223 319.447 198.414 319.65 198.626C319.853 198.838 320.008 199.08 320.116 199.352C320.224 199.625 320.278 199.942 320.278 200.304C320.278 200.803 320.184 201.222 319.995 201.561C319.806 201.9 319.55 202.174 319.227 202.384C318.904 202.594 318.528 202.745 318.099 202.836C317.67 202.928 317.217 202.974 316.741 202.974C316.252 202.974 315.787 202.932 315.345 202.849C314.904 202.766 314.522 202.641 314.198 202.474ZM313.442 195.511H310.886V202.829H308.861V195.511H306.317V193.867H313.442V195.511Z" fill="#7B4AE2" fill-opacity="0.5"/>
</g>
<g filter="url(#filter1_d_111_92)">
<ellipse cx="63.4219" cy="148.06" rx="18.4219" ry="18.5019" fill="#1D0604"/>
</g>
<path d="M70.3138 144.806C70.099 144.732 69.8764 144.662 69.6472 144.595C69.6849 144.441 69.7195 144.288 69.7502 144.139C70.2548 141.679 69.9249 139.697 68.7984 139.045C67.7182 138.419 65.9517 139.071 64.1676 140.631C63.9961 140.781 63.824 140.94 63.6521 141.106C63.5375 140.996 63.4231 140.89 63.309 140.788C61.4392 139.12 59.565 138.418 58.4397 139.072C57.3605 139.699 57.041 141.562 57.4951 143.893C57.539 144.119 57.5903 144.349 57.6482 144.582C57.383 144.658 57.1269 144.739 56.8819 144.824C54.6898 145.592 53.2898 146.795 53.2898 148.043C53.2898 149.332 54.7927 150.624 57.0759 151.408C57.2561 151.47 57.4431 151.528 57.6358 151.584C57.5732 151.837 57.5188 152.085 57.4732 152.326C57.0401 154.617 57.3783 156.436 58.4545 157.059C59.5662 157.703 61.4319 157.041 63.2486 155.446C63.3922 155.32 63.5363 155.187 63.6807 155.046C63.8678 155.227 64.0546 155.399 64.2404 155.559C66.0001 157.08 67.7381 157.694 68.8133 157.069C69.9239 156.423 70.2848 154.47 69.8163 152.092C69.7805 151.911 69.7388 151.725 69.6921 151.536C69.8231 151.497 69.9517 151.457 70.0771 151.416C72.4508 150.626 73.9952 149.349 73.9952 148.043C73.9952 146.79 72.55 145.579 70.3138 144.806ZM69.7989 150.572C69.6857 150.61 69.5695 150.646 69.4512 150.682C69.1891 149.848 68.8355 148.962 68.4027 148.047C68.8157 147.154 69.1557 146.279 69.4104 145.451C69.6222 145.513 69.8278 145.578 70.0259 145.646C71.9419 146.309 73.1106 147.288 73.1106 148.043C73.1106 148.847 71.8484 149.89 69.7989 150.572ZM68.9485 152.265C69.1557 153.316 69.1853 154.266 69.0481 155.009C68.9248 155.677 68.6768 156.122 68.3701 156.3C67.7176 156.68 66.3222 156.187 64.8173 154.886C64.6448 154.737 64.471 154.578 64.2967 154.409C64.8801 153.768 65.4632 153.023 66.0323 152.196C67.0332 152.107 67.9789 151.961 68.8365 151.762C68.8787 151.933 68.9162 152.101 68.9485 152.265ZM60.3487 156.235C59.7112 156.461 59.2034 156.467 58.8965 156.29C58.2434 155.911 57.9719 154.451 58.3422 152.492C58.3847 152.268 58.4352 152.037 58.4934 151.802C59.3415 151.99 60.2803 152.125 61.2836 152.207C61.8565 153.017 62.4565 153.761 63.0611 154.413C62.929 154.541 62.7974 154.663 62.6666 154.777C61.8632 155.483 61.0582 155.983 60.3487 156.235ZM57.362 150.567C56.3524 150.221 55.5186 149.77 54.9471 149.279C54.4336 148.837 54.1743 148.399 54.1743 148.043C54.1743 147.286 55.2983 146.32 57.1731 145.663C57.4005 145.584 57.6386 145.509 57.8858 145.438C58.1449 146.285 58.4847 147.17 58.8949 148.064C58.4794 148.973 58.1347 149.872 57.8731 150.728C57.6969 150.677 57.5262 150.624 57.362 150.567ZM58.3632 143.723C57.9741 141.726 58.2325 140.219 58.8828 139.841C59.5755 139.438 61.1072 140.012 62.7217 141.452C62.8248 141.544 62.9284 141.64 63.0323 141.74C62.4308 142.389 61.8363 143.127 61.2685 143.932C60.2947 144.023 59.3626 144.169 58.5055 144.364C58.4516 144.146 58.4039 143.932 58.3632 143.723ZM67.2945 145.938C67.0897 145.582 66.8793 145.235 66.6649 144.898C67.3255 144.982 67.9585 145.093 68.5529 145.229C68.3744 145.804 68.152 146.404 67.8902 147.02C67.7024 146.662 67.5037 146.301 67.2945 145.938ZM63.6524 142.375C64.0603 142.819 64.4689 143.314 64.8708 143.852C64.4658 143.833 64.0558 143.823 63.6425 143.823C63.233 143.823 62.8261 143.833 62.4236 143.852C62.8259 143.319 63.238 142.824 63.6524 142.375ZM59.9868 145.944C59.7822 146.3 59.5872 146.66 59.4024 147.019C59.1448 146.406 58.9244 145.802 58.7444 145.22C59.3352 145.087 59.9651 144.979 60.6216 144.896C60.4041 145.237 60.1921 145.587 59.9868 145.944V145.944ZM60.6405 151.253C59.9623 151.177 59.3228 151.074 58.7322 150.945C58.9151 150.352 59.1403 149.735 59.4033 149.109C59.5887 149.468 59.7844 149.828 59.9903 150.185H59.9904C60.2001 150.549 60.4174 150.905 60.6405 151.253ZM63.6768 153.773C63.2576 153.319 62.8394 152.817 62.431 152.276C62.8275 152.292 63.2317 152.3 63.6425 152.3C64.0645 152.3 64.4817 152.29 64.8924 152.272C64.4892 152.822 64.0821 153.325 63.6768 153.773ZM67.8986 149.077C68.1754 149.71 68.4087 150.323 68.5939 150.906C67.9936 151.044 67.3454 151.154 66.6625 151.237C66.8774 150.895 67.0896 150.542 67.2981 150.179C67.509 149.811 67.7093 149.443 67.8986 149.077ZM66.5319 149.735C66.2082 150.298 65.8759 150.836 65.5386 151.344C64.9242 151.388 64.2894 151.411 63.6425 151.411C62.9981 151.411 62.3714 151.391 61.7678 151.352C61.4169 150.837 61.0774 150.298 60.7558 149.74H60.7559C60.4351 149.183 60.1399 148.622 59.8724 148.064C60.1398 147.505 60.4343 146.943 60.7532 146.388L60.7531 146.388C61.0729 145.831 61.4094 145.294 61.7571 144.783C62.3729 144.736 63.0043 144.711 63.6424 144.711H63.6425C64.2835 144.711 64.9158 144.736 65.5314 144.783C65.8737 145.291 66.208 145.826 66.529 146.383C66.8536 146.946 67.1519 147.504 67.4216 148.052C67.1527 148.608 66.8551 149.172 66.5319 149.735ZM68.3566 139.814C69.0499 140.216 69.3196 141.836 68.8839 143.959C68.8561 144.095 68.8248 144.233 68.7909 144.373C67.9318 144.174 66.999 144.026 66.0224 143.934C65.4535 143.12 64.8639 142.38 64.2721 141.74C64.4312 141.586 64.5901 141.439 64.7483 141.301C66.2769 139.965 67.7056 139.437 68.3566 139.814ZM63.6425 146.186C64.6636 146.186 65.4914 147.017 65.4914 148.043C65.4914 149.068 64.6636 149.9 63.6425 149.9C62.6214 149.9 61.7936 149.068 61.7936 148.043C61.7936 147.017 62.6214 146.186 63.6425 146.186Z" fill="#7B4AE2" fill-opacity="0.5"/>
<g filter="url(#filter2_d_111_92)">
<ellipse cx="63.4219" cy="266.473" rx="18.4219" ry="18.5019" fill="#1D0604"/>
</g>
<g clip-path="url(#clip1_111_92)">
<path d="M63.6387 277.334C63.6378 277.334 63.637 277.334 63.6361 277.334C63.3455 277.334 63.0737 277.251 62.8405 277.107L62.8482 277.111L60.33 275.541C59.9545 275.318 60.138 275.24 60.2615 275.194C60.6953 275.051 61.0725 274.864 61.4206 274.636L61.4001 274.648C61.4241 274.636 61.4515 274.63 61.4807 274.63C61.5201 274.63 61.557 274.643 61.5878 274.664L61.587 274.664L63.5212 275.874C63.5547 275.893 63.595 275.905 63.6378 275.905C63.6807 275.905 63.721 275.893 63.7562 275.873L63.7544 275.874L71.2943 271.284C71.3637 271.239 71.4092 271.159 71.4092 271.069C71.4092 271.068 71.4092 271.068 71.4092 271.067V261.892C71.4083 261.801 71.362 261.72 71.2926 261.676L71.2917 261.675L63.7544 257.089C63.721 257.069 63.6807 257.058 63.6387 257.058C63.5967 257.058 63.5564 257.069 63.5212 257.09L63.5221 257.089L55.9865 261.676C55.9154 261.72 55.8682 261.801 55.8674 261.893V271.069C55.8674 271.161 55.9145 271.239 55.9848 271.281L55.9857 271.282L58.052 272.541C59.1726 273.132 59.8585 272.436 59.8585 271.737V262.675C59.8585 262.549 59.9562 262.446 60.0763 262.446H60.0788H61.0348H61.0357C61.1557 262.446 61.2534 262.548 61.2534 262.675V271.737C61.2534 273.315 60.4389 274.22 59.0208 274.22C59.0037 274.22 58.9839 274.221 58.9642 274.221C58.3426 274.221 57.7622 274.035 57.27 273.714L55.3066 272.522C54.8299 272.226 54.5161 271.688 54.5161 271.071V261.893C54.517 261.278 54.8316 260.742 55.2998 260.451L55.3075 260.446L62.8482 255.851C63.0771 255.717 63.3498 255.638 63.6404 255.638C63.9311 255.638 64.2046 255.718 64.4412 255.856L64.4326 255.851L71.9725 260.446C72.4483 260.742 72.7621 261.278 72.7638 261.893V271.07C72.763 271.686 72.4483 272.224 71.9793 272.517L71.9716 272.522L64.4335 277.113C64.2071 277.253 63.9345 277.335 63.643 277.335C63.6413 277.335 63.6387 277.335 63.637 277.335L63.6387 277.334Z" fill="#7B4AE2" fill-opacity="0.5"/>
<path d="M65.9682 271.012C62.669 271.012 61.9771 269.416 61.9771 268.075V268.074C61.9771 267.947 62.0739 267.845 62.194 267.845H62.1957H63.1705H63.1714C63.2803 267.845 63.3703 267.929 63.3874 268.039V268.039C63.5341 269.086 63.973 269.614 65.9682 269.614C67.5569 269.614 68.2317 269.236 68.2317 268.347C68.2317 267.834 68.0405 267.454 65.5721 267.199C63.5092 266.982 62.2334 266.503 62.2334 264.763C62.2334 263.159 63.5161 262.201 65.663 262.201C68.0791 262.201 69.2743 263.085 69.4252 264.982C69.426 264.989 69.426 264.996 69.426 265.002C69.426 265.13 69.3283 265.232 69.2082 265.232H68.2368C68.1339 265.232 68.0473 265.155 68.0259 265.053V265.051C67.791 263.95 67.22 263.598 65.6715 263.598C63.937 263.598 63.7355 264.236 63.7355 264.712C63.7355 265.291 63.9739 265.459 66.3154 265.785C68.6321 266.109 69.733 266.566 69.733 268.283C69.7295 270.018 68.3603 271.01 65.9708 271.01L65.9682 271.012Z" fill="#7B4AE2" fill-opacity="0.5"/>
</g>
<g filter="url(#filter3_f_111_92)">
<ellipse cx="178.559" cy="181.826" rx="131.256" ry="131.826" fill="#7B4AE2" fill-opacity="0.2"/>
</g>
<g filter="url(#filter4_i_111_92)">
<path fill-rule="evenodd" clip-rule="evenodd" d="M142.549 265.414C125.072 267.122 109.195 273.659 95.9837 284.555C84.6152 293.89 81.4436 301.31 73.1205 311.877C90.0789 329.534 112.883 344.494 137.751 352.756C154.339 358.233 165.654 360 183.428 360C201.201 360 212.517 358.233 229.105 352.756C254.193 344.705 275.325 331.511 294.375 312.573C281.328 295.673 275.957 284.596 254.935 274.189C246.107 269.772 235.74 266.592 227.801 265.767L224.062 265.429L223.885 265.425L223.477 268.241C221.699 281.669 204.934 291.563 184.02 291.563C163.108 291.563 146.638 281.787 144.504 268.182C144.09 265.473 143.912 265.237 142.55 265.414H142.549Z" fill="#2E1A17"/>
</g>
<path fill-rule="evenodd" clip-rule="evenodd" d="M153.84 233.528C172.643 243.649 193.729 242.525 210.249 233.528V255.7L210.436 255.695V268.713H153.84V233.528Z" fill="#BB7D52"/>
<path fill-rule="evenodd" clip-rule="evenodd" d="M153.839 252.003C172.642 262.124 193.729 261 210.249 252.003V266.142L222.953 265.822L223.111 265.828C223.111 299.909 142.427 305.01 142.427 265.777L142.742 265.763L153.839 265.82V252.003Z" fill="#D08B5B"/>
<path fill-rule="evenodd" clip-rule="evenodd" d="M120.808 111.937C165.68 83.0845 223.087 93.3446 242.483 112.37C248.09 125.996 248.487 139.14 246.837 153.248C250.625 150.503 255.13 151.131 258.68 153.687C260.117 165.394 263.969 188.552 246.709 189.557C240.766 264.262 131.885 273.56 117.167 189.802C100.06 189.206 104.673 165.801 105.742 154.561C109.846 151.408 114.533 152.995 117.442 154.406L120.808 111.937Z" fill="#D08B5B"/>
<path fill-rule="evenodd" clip-rule="evenodd" d="M142.304 156.195C139.182 157.681 135.587 161.426 135.587 163.21C135.587 164.577 136.53 164.577 138.357 163.091C143.129 159.286 153.262 159.286 158.447 163.031C159.448 163.685 160.509 164.28 160.862 164.28C162.099 164.28 161.51 162.14 159.625 159.881C157.151 156.79 152.732 154.768 148.549 154.768C146.369 154.768 144.307 155.244 142.304 156.195V156.195Z" fill="#533824"/>
<path fill-rule="evenodd" clip-rule="evenodd" d="M210.646 156.195C207.524 157.681 203.93 161.426 203.93 163.21C203.93 164.577 204.872 164.577 206.699 163.091C211.471 159.286 221.605 159.286 226.789 163.031C227.79 163.685 228.851 164.28 229.205 164.28C230.442 164.28 229.853 162.14 227.967 159.881C225.493 156.79 221.074 154.768 216.891 154.768C214.711 154.768 212.649 155.244 210.646 156.195L210.646 156.195Z" fill="#533824"/>
<path fill-rule="evenodd" clip-rule="evenodd" d="M168.993 184.61C169.641 187.166 171.526 189.187 174.825 190.792C177.477 192.1 178.832 192.397 182.72 192.397C186.608 192.397 187.964 192.1 190.615 190.792C193.914 189.187 195.799 187.166 196.447 184.61L196.742 183.302H182.72H168.698L168.993 184.61Z" fill="#AF754C"/>
<path fill-rule="evenodd" clip-rule="evenodd" d="M166.283 208.507C167.049 213.441 170.76 218.494 175.356 220.871C178.714 222.655 184.9 223.011 188.435 221.644C193.738 219.564 198.333 213.976 199.158 208.507H166.283Z" fill="#3E291B"/>
<g filter="url(#filter5_i_111_92)">
<path d="M142.275 262.193C108.871 266.876 94.0071 278.248 72.2648 309.325C87.2981 324.338 98.0275 331.452 118.938 343.137C140.799 352.818 154.257 355.912 180.831 356.457C210.222 356.294 224.194 352.541 244.753 343.137C268.346 331.752 278.639 324.295 292.441 309.325C271.997 278.116 256.327 268.431 222.431 262.193L211.161 260.542L210.256 243.75C187.29 254.657 174.57 254.482 153.436 243.75L152.516 260.542L142.275 262.193Z" fill="#2E1A17"/>
</g>
<path d="M142.275 262.193C108.871 266.876 94.0071 278.248 72.2648 309.325C87.2981 324.338 98.0275 331.452 118.938 343.137C140.799 352.818 154.257 355.912 180.831 356.457C210.222 356.294 224.194 352.541 244.753 343.137C268.346 331.752 278.639 324.295 292.441 309.325C271.997 278.116 256.327 268.431 222.431 262.193L211.161 260.542L210.256 243.75C187.29 254.657 174.57 254.482 153.436 243.75L152.516 260.542L142.275 262.193Z" stroke="#1D110F" stroke-opacity="0.2" stroke-dasharray="2 4 6 8"/>
<path d="M238.165 118.959C239.632 132.153 243.238 149.697 246.282 153.796C249.326 157.894 247.297 115.885 247.297 115.885C245.941 108.874 244.524 105.227 240.195 99.4914C235.96 95.8464 234.71 91.7483 228.019 88.2207C224.7 85.4372 221.086 85.457 215.843 84.1223C192.465 82.119 179.358 81.9349 155.98 84.1223C148.592 84.6601 144.581 85.5141 137.716 88.2207C133.8 90.7779 131.581 92.7369 127.57 97.4422C123.113 101.836 122.048 104.988 120.467 110.762C117.738 127.132 115.394 154.82 118.438 154.82C122.496 143.549 124.851 132.843 126.555 118.959C129.849 115.383 131.295 113.485 133.658 110.762C135.98 118.887 137.659 122.337 140.76 128.18C141.697 125.402 142.553 124.09 145.833 123.057C153.165 129.598 158.441 131.867 169.17 134.328L168.155 129.205C171.755 131.984 174.212 132.863 179.316 133.303C177.835 130.736 177.302 129.023 177.287 125.107C182.661 128.657 188.401 130.197 202.653 132.279C200.334 127.534 199.453 124.858 200.624 119.984C206.078 123.917 208.939 125.927 213.814 129.205C219.461 122.792 221.559 118.856 221.931 110.762C227.432 114.535 230.926 116.243 238.165 118.959Z" fill="#72541A" stroke="#72541A" stroke-width="0.1"/>
<defs>
<filter id="filter0_d_111_92" x="244.156" y="130.738" width="136.844" height="137.004" filterUnits="userSpaceOnUse" color-interpolation-filters="sRGB">
<feFlood flood-opacity="0" result="BackgroundImageFix"/>
<feColorMatrix in="SourceAlpha" type="matrix" values="0 0 0 0 0 0 0 0 0 0 0 0 0 0 0 0 0 0 127 0" result="hardAlpha"/>
<feOffset dy="4"/>
<feGaussianBlur stdDeviation="25"/>
<feComposite in2="hardAlpha" operator="out"/>
<feColorMatrix type="matrix" values="0 0 0 0 0 0 0 0 0 0 0 0 0 0 0 0 0 0 0.5 0"/>
<feBlend mode="normal" in2="BackgroundImageFix" result="effect1_dropShadow_111_92"/>
<feBlend mode="normal" in="SourceGraphic" in2="effect1_dropShadow_111_92" result="shape"/>
</filter>
<filter id="filter1_d_111_92" x="-5" y="83.5584" width="136.844" height="137.004" filterUnits="userSpaceOnUse" color-interpolation-filters="sRGB">
<feFlood flood-opacity="0" result="BackgroundImageFix"/>
<feColorMatrix in="SourceAlpha" type="matrix" values="0 0 0 0 0 0 0 0 0 0 0 0 0 0 0 0 0 0 127 0" result="hardAlpha"/>
<feOffset dy="4"/>
<feGaussianBlur stdDeviation="25"/>
<feComposite in2="hardAlpha" operator="out"/>
<feColorMatrix type="matrix" values="0 0 0 0 0 0 0 0 0 0 0 0 0 0 0 0 0 0 0.5 0"/>
<feBlend mode="normal" in2="BackgroundImageFix" result="effect1_dropShadow_111_92"/>
<feBlend mode="normal" in="SourceGraphic" in2="effect1_dropShadow_111_92" result="shape"/>
</filter>
<filter id="filter2_d_111_92" x="-5" y="201.971" width="136.844" height="137.004" filterUnits="userSpaceOnUse" color-interpolation-filters="sRGB">
<feFlood flood-opacity="0" result="BackgroundImageFix"/>
<feColorMatrix in="SourceAlpha" type="matrix" values="0 0 0 0 0 0 0 0 0 0 0 0 0 0 0 0 0 0 127 0" result="hardAlpha"/>
<feOffset dy="4"/>
<feGaussianBlur stdDeviation="25"/>
<feComposite in2="hardAlpha" operator="out"/>
<feColorMatrix type="matrix" values="0 0 0 0 0 0 0 0 0 0 0 0 0 0 0 0 0 0 0.5 0"/>
<feBlend mode="normal" in2="BackgroundImageFix" result="effect1_dropShadow_111_92"/>
<feBlend mode="normal" in="SourceGraphic" in2="effect1_dropShadow_111_92" result="shape"/>
</filter>
<filter id="filter3_f_111_92" x="-2.69739" y="0" width="362.512" height="363.653" filterUnits="userSpaceOnUse" color-interpolation-filters="sRGB">
<feFlood flood-opacity="0" result="BackgroundImageFix"/>
<feBlend mode="normal" in="SourceGraphic" in2="BackgroundImageFix" result="shape"/>
<feGaussianBlur stdDeviation="25" result="effect1_foregroundBlur_111_92"/>
</filter>
<filter id="filter4_i_111_92" x="73.1205" y="265.369" width="221.255" height="98.6309" filterUnits="userSpaceOnUse" color-interpolation-filters="sRGB">
<feFlood flood-opacity="0" result="BackgroundImageFix"/>
<feBlend mode="normal" in="SourceGraphic" in2="BackgroundImageFix" result="shape"/>
<feColorMatrix in="SourceAlpha" type="matrix" values="0 0 0 0 0 0 0 0 0 0 0 0 0 0 0 0 0 0 127 0" result="hardAlpha"/>
<feOffset dy="4"/>
<feGaussianBlur stdDeviation="2"/>
<feComposite in2="hardAlpha" operator="arithmetic" k2="-1" k3="1"/>
<feColorMatrix type="matrix" values="0 0 0 0 0 0 0 0 0 0 0 0 0 0 0 0 0 0 0.25 0"/>
<feBlend mode="normal" in2="shape" result="effect1_innerShadow_111_92"/>
</filter>
<filter id="filter5_i_111_92" x="71.6145" y="242.957" width="221.459" height="118" filterUnits="userSpaceOnUse" color-interpolation-filters="sRGB">
<feFlood flood-opacity="0" result="BackgroundImageFix"/>
<feBlend mode="normal" in="SourceGraphic" in2="BackgroundImageFix" result="shape"/>
<feColorMatrix in="SourceAlpha" type="matrix" values="0 0 0 0 0 0 0 0 0 0 0 0 0 0 0 0 0 0 127 0" result="hardAlpha"/>
<feOffset dy="4"/>
<feGaussianBlur stdDeviation="2"/>
<feComposite in2="hardAlpha" operator="arithmetic" k2="-1" k3="1"/>
<feColorMatrix type="matrix" values="0 0 0 0 0 0 0 0 0 0 0 0 0 0 0 0 0 0 0.25 0"/>
<feBlend mode="normal" in2="shape" result="effect1_innerShadow_111_92"/>
</filter>
<clipPath id="clip0_111_92">
<rect width="18.4219" height="18.5019" fill="white" transform="translate(303.367 185.989)"/>
</clipPath>
<clipPath id="clip1_111_92">
<rect width="20.5773" height="21.7" fill="white" transform="translate(53.2308 255.633)"/>
</clipPath>
</defs>
</svg>
