<svg width="172" height="172" viewBox="0 0 172 172" fill="none" xmlns="http://www.w3.org/2000/svg">
<g filter="url(#filter0_d_21_4114)">
<circle cx="85.8102" cy="81.9796" r="35.8102" fill="#1D0604"/>
</g>
<g clip-path="url(#clip0_21_4114)">
<path d="M86.2317 103C86.23 103 86.2283 103 86.2267 103C85.6617 103 85.1333 102.841 84.68 102.561L84.695 102.569L79.8 99.5298C79.07 99.0993 79.4267 98.9488 79.6667 98.8595C80.51 98.5813 81.2433 98.2208 81.92 97.778L81.88 97.8025C81.9267 97.7798 81.98 97.7675 82.0367 97.7675C82.1133 97.7675 82.185 97.792 82.245 97.834L82.2433 97.8323L86.0033 100.175C86.0683 100.212 86.1467 100.235 86.23 100.235C86.3133 100.235 86.3917 100.212 86.46 100.174L86.4567 100.175L101.113 91.2908C101.248 91.2033 101.337 91.0492 101.337 90.8742C101.337 90.8725 101.337 90.8725 101.337 90.8708V73.1135C101.335 72.9367 101.245 72.781 101.11 72.6953L101.108 72.6935L86.4567 63.8175C86.3917 63.779 86.3133 63.7563 86.2317 63.7563C86.15 63.7563 86.0717 63.779 86.0033 63.8193L86.005 63.8175L71.3567 72.6953C71.2183 72.781 71.1267 72.9367 71.125 73.1152V90.876C71.125 91.0528 71.2167 91.205 71.3533 91.2855L71.355 91.2872L75.3717 93.7232C77.55 94.8677 78.8833 93.5202 78.8833 92.1675V74.629C78.8833 74.384 79.0733 74.1845 79.3067 74.1845H79.3117H81.17H81.1717C81.405 74.1845 81.595 74.3822 81.595 74.629V92.1675C81.595 95.2212 80.0117 96.973 77.255 96.973C77.2217 96.973 77.1833 96.9747 77.145 96.9747C75.9367 96.9747 74.8083 96.616 73.8517 95.9947L70.035 93.6883C69.1083 93.1143 68.4983 92.073 68.4983 90.8795V73.1152C68.5 71.9252 69.1117 70.8875 70.0217 70.324L70.0367 70.3153L84.695 61.4218C85.14 61.161 85.67 61.0088 86.235 61.0088C86.8 61.0088 87.3317 61.1628 87.7917 61.4305L87.775 61.4218L102.432 70.3153C103.357 70.8875 103.967 71.9252 103.97 73.1152V90.8778C103.968 92.0695 103.357 93.1108 102.445 93.6778L102.43 93.6865L87.7767 102.573C87.3367 102.844 86.8067 103.004 86.24 103.004C86.2367 103.004 86.2317 103.004 86.2283 103.004L86.2317 103Z" fill="#090E16" fill-opacity="0.5"/>
<path d="M90.76 90.7658C84.3467 90.7658 83.0017 87.6753 83.0017 85.08V85.0783C83.0017 84.8333 83.19 84.6355 83.4233 84.6355H83.4267H85.3217H85.3233C85.535 84.6355 85.71 84.7983 85.7433 85.01V85.0118C86.0283 87.0383 86.8817 88.0603 90.76 88.0603C93.8483 88.0603 95.16 87.327 95.16 85.6068C95.16 84.6145 94.7883 83.8795 89.99 83.386C85.98 82.966 83.5 82.0385 83.5 78.6698C83.5 75.5653 85.9933 73.712 90.1667 73.712C94.8633 73.712 97.1867 75.4235 97.48 79.095C97.4817 79.1073 97.4817 79.1213 97.4817 79.1335C97.4817 79.3803 97.2917 79.578 97.0583 79.578H95.17C94.97 79.578 94.8017 79.4293 94.76 79.2315V79.228C94.3033 77.0965 93.1933 76.4158 90.1833 76.4158C86.8117 76.4158 86.42 77.6495 86.42 78.5718C86.42 79.6918 86.8833 80.0173 91.435 80.649C95.9383 81.2755 98.0783 82.1593 98.0783 85.4825C98.0717 88.8408 95.41 90.7623 90.765 90.7623L90.76 90.7658Z" fill="#090E16" fill-opacity="0.5"/>
</g>
<defs>
<filter id="filter0_d_21_4114" x="0" y="0.169373" width="171.62" height="171.62" filterUnits="userSpaceOnUse" color-interpolation-filters="sRGB">
<feFlood flood-opacity="0" result="BackgroundImageFix"/>
<feColorMatrix in="SourceAlpha" type="matrix" values="0 0 0 0 0 0 0 0 0 0 0 0 0 0 0 0 0 0 127 0" result="hardAlpha"/>
<feOffset dy="4"/>
<feGaussianBlur stdDeviation="25"/>
<feComposite in2="hardAlpha" operator="out"/>
<feColorMatrix type="matrix" values="0 0 0 0 0 0 0 0 0 0 0 0 0 0 0 0 0 0 0.5 0"/>
<feBlend mode="normal" in2="BackgroundImageFix" result="effect1_dropShadow_21_4114"/>
<feBlend mode="normal" in="SourceGraphic" in2="effect1_dropShadow_21_4114" result="shape"/>
</filter>
<clipPath id="clip0_21_4114">
<rect width="40" height="42" fill="white" transform="translate(66 61)"/>
</clipPath>
</defs>
</svg>
